<?xml version="1.0" standalone="no"?>
<!DOCTYPE svg PUBLIC "-//W3C//DTD SVG 20010904//EN"
 "http://www.w3.org/TR/2001/REC-SVG-20010904/DTD/svg10.dtd">
<svg version="1.0" xmlns="http://www.w3.org/2000/svg"
 width="700.000000pt" height="700.000000pt" viewBox="0 0 700.000000 700.000000"
 preserveAspectRatio="xMidYMid meet">
<metadata>
Created by potrace 1.11, written by Peter Selinger 2001-2013
</metadata>
<g transform="translate(0.000000,700.000000) scale(0.100000,-0.100000)"
fill="#000000" stroke="none">
<path d="M4452 4671 c2 -7 -3 -16 -11 -19 -8 -2 -11 0 -8 5 4 6 -5 9 -20 8
-15 0 -29 -7 -31 -13 -3 -10 -7 -10 -17 -2 -10 8 -15 8 -21 -1 -5 -8 -3 -9 6
-4 8 5 11 4 7 -2 -4 -6 -18 -10 -33 -10 -14 0 -31 -6 -37 -13 -9 -10 -9 -11 2
-5 10 6 12 4 7 -4 -6 -9 -11 -9 -21 -1 -11 9 -17 7 -26 -8 -7 -12 -19 -18 -27
-14 -9 3 -13 1 -10 -4 3 -5 0 -14 -7 -21 -11 -10 -15 -10 -18 0 -3 7 -6 5 -6
-5 -1 -9 -6 -20 -13 -24 -7 -5 -8 -3 -3 7 5 8 -6 -1 -24 -18 -18 -18 -36 -33
-41 -33 -4 0 -6 -10 -3 -22 4 -19 3 -20 -6 -8 -9 13 -11 12 -11 -3 0 -11 -5
-15 -11 -11 -8 4 -9 -1 -4 -17 4 -13 4 -21 0 -17 -12 12 -45 -35 -34 -49 7 -7
6 -14 -2 -19 -8 -5 -9 -3 -4 6 5 9 4 11 -3 6 -7 -4 -12 -16 -12 -27 0 -11 -3
-18 -7 -16 -5 3 -9 -6 -9 -19 -1 -15 2 -22 10 -18 6 3 2 -2 -9 -11 -18 -14
-32 -61 -15 -50 4 2 7 -2 7 -10 0 -8 -4 -12 -8 -9 -4 2 -7 -5 -6 -16 1 -11 6
-20 11 -20 5 0 1 -7 -10 -15 -11 -8 -14 -14 -6 -15 10 0 10 -5 1 -22 -11 -21
-11 -22 5 -9 15 13 16 12 7 -13 -7 -17 -7 -26 -1 -26 6 0 10 -5 10 -11 0 -5
-5 -7 -11 -3 -7 4 -10 1 -7 -7 3 -8 10 -13 15 -12 5 1 10 -8 10 -20 2 -18 0
-19 -8 -7 -9 12 -10 12 -5 -3 3 -10 6 -21 6 -23 0 -3 6 -2 13 2 7 5 6 0 -3
-11 -9 -11 -10 -16 -2 -11 8 5 12 0 12 -17 0 -14 7 -28 16 -31 9 -3 14 -13 11
-20 -3 -8 -1 -16 4 -18 5 -2 11 -13 12 -25 0 -12 5 -19 9 -17 5 3 6 10 3 15
-10 15 2 10 16 -8 10 -11 10 -14 2 -9 -26 15 -12 -10 15 -28 15 -9 19 -15 10
-12 -10 3 -18 1 -18 -4 0 -9 30 -15 53 -11 5 1 6 -3 2 -9 -3 -6 -12 -7 -18 -4
-7 3 1 -5 17 -20 16 -14 37 -28 48 -32 11 -3 23 -15 28 -27 8 -21 9 -21 10 -2
1 18 2 17 15 -5 8 -14 14 -19 15 -10 0 10 5 7 16 -8 8 -12 21 -22 27 -22 7 0
6 4 -3 10 -9 6 -10 10 -3 10 7 0 16 -8 21 -17 6 -9 17 -18 26 -19 9 -1 13 2
10 8 -6 9 1 7 55 -21 14 -8 21 -8 16 -2 -3 6 1 11 10 11 10 0 13 -5 9 -12 -5
-8 0 -7 11 2 17 14 18 13 12 -4 -6 -16 -5 -17 8 -6 8 7 15 9 15 4 0 -5 5 -2
10 6 5 8 10 10 10 4 0 -7 9 -14 20 -17 11 -3 18 -1 15 3 -3 5 -1 11 5 15 5 3
10 2 10 -4 0 -12 24 -8 43 7 12 10 17 10 23 1 5 -8 3 -9 -6 -4 -9 5 -11 4 -6
-4 5 -8 16 -6 36 9 16 12 32 25 36 31 4 6 11 6 20 -2 11 -9 14 -8 14 2 0 12 2
12 9 0 7 -11 10 -9 16 8 5 18 9 20 21 10 12 -10 13 -9 8 5 -4 9 -3 16 2 15 23
-4 45 2 39 11 -3 6 -1 10 5 10 6 0 8 4 5 10 -3 5 0 7 9 4 9 -3 19 3 26 16 7
14 17 19 27 16 13 -6 14 -4 3 9 -7 9 -9 15 -4 14 29 -5 41 2 39 25 -2 19 1 23
13 19 11 -5 14 -2 9 11 -4 10 -1 19 8 22 8 4 12 11 8 17 -4 7 0 8 12 3 15 -5
16 -4 5 9 -10 12 -10 15 3 15 9 0 19 5 23 12 4 7 3 8 -4 4 -7 -4 -12 -1 -12 8
0 8 7 19 16 24 11 6 15 17 12 29 -3 11 1 28 8 37 7 10 10 25 7 34 -5 11 -3 13
8 7 12 -8 12 -6 0 8 -10 13 -10 17 -1 17 9 0 9 4 -1 17 -12 14 -12 16 2 11 12
-5 15 -1 11 18 -2 14 -9 21 -16 17 -6 -3 -6 0 2 8 14 15 16 33 3 25 -5 -4 -8
2 -6 11 2 10 4 18 5 18 1 0 3 8 5 18 2 9 0 15 -5 12 -4 -3 -10 2 -14 10 -3 8
0 15 7 15 8 0 7 3 -2 9 -8 5 -16 17 -17 25 -1 9 2 14 7 10 5 -3 9 0 9 5 0 6
-7 11 -16 11 -11 0 -15 6 -11 20 5 21 -15 44 -29 32 -4 -4 -2 1 5 11 10 12 10
17 2 17 -7 0 -9 5 -5 12 5 8 2 9 -10 5 -9 -4 -15 -3 -12 1 7 12 -25 72 -39 72
-17 0 -45 33 -45 53 0 9 -4 17 -10 17 -5 0 -7 -8 -3 -17 3 -10 -5 -2 -18 17
-16 23 -33 35 -48 35 -14 0 -28 9 -35 24 -9 15 -16 20 -20 12 -10 -16 -29 -14
-23 2 4 10 -2 13 -19 9 -13 -2 -24 0 -24 6 0 5 -9 12 -20 15 -11 3 -18 2 -15
-2 2 -4 -2 -8 -10 -8 -8 0 -12 4 -9 8 2 4 0 10 -6 14 -5 3 -10 0 -10 -7 0 -10
-2 -10 -9 1 -6 9 -11 10 -15 2 -4 -6 -13 -11 -19 -11 -8 0 -8 3 1 9 10 6 7 10
-12 13 -14 3 -23 2 -21 -2 3 -5 -2 -10 -10 -14 -8 -3 -17 0 -21 6 -5 7 -2 8 6
3 9 -5 11 -4 6 4 -6 8 -12 9 -20 2 -9 -7 -16 -7 -25 2 -10 9 -12 9 -9 -2z
m377 -125 c-3 -3 -11 5 -18 17 -13 21 -12 21 5 5 10 -10 16 -20 13 -22z m102
-93 c13 -16 12 -17 -3 -4 -17 13 -22 21 -14 21 2 0 10 -8 17 -17z m-931 -207
c0 -3 -4 -8 -10 -11 -5 -3 -10 -1 -10 4 0 6 5 11 10 11 6 0 10 -2 10 -4z"/>
<path d="M4880 4523 c0 -6 8 -17 18 -24 16 -13 16 -13 2 6 -8 11 -16 22 -17
24 -2 2 -3 0 -3 -6z"/>
<path d="M4680 3625 c-7 -9 -8 -15 -2 -15 5 0 12 7 16 15 3 8 4 15 2 15 -2 0
-9 -7 -16 -15z"/>
<path d="M2781 3045 c-1 -10 -28 -16 -71 -17 -8 0 -22 -7 -30 -14 -10 -8 -21
-10 -29 -4 -10 5 -21 1 -33 -13 -11 -12 -17 -16 -13 -9 3 6 1 12 -4 12 -6 0
-11 -5 -11 -10 0 -6 -6 -10 -13 -8 -7 2 -12 1 -12 -2 0 -3 -7 -13 -15 -22 -11
-12 -19 -13 -30 -5 -8 6 -12 8 -8 3 7 -9 -23 -45 -33 -39 -4 1 -10 -9 -13 -23
-5 -20 -10 -23 -21 -14 -10 8 -15 8 -21 -1 -4 -8 -3 -9 4 -5 18 11 14 -10 -5
-25 -14 -12 -16 -12 -8 0 5 9 4 12 -3 7 -6 -4 -8 -14 -5 -23 4 -11 3 -14 -5
-9 -8 5 -12 0 -12 -12 0 -10 -9 -29 -20 -42 -11 -12 -17 -28 -13 -34 4 -7 2
-7 -8 1 -12 10 -15 8 -15 -7 0 -10 5 -16 10 -12 6 3 -1 -10 -14 -28 -13 -18
-19 -30 -12 -26 7 4 12 2 12 -3 0 -6 -4 -11 -10 -11 -5 0 -10 -13 -10 -30 0
-16 -5 -30 -11 -30 -5 0 -7 -5 -4 -10 4 -6 12 -7 18 -3 9 5 9 3 0 -8 -10 -12
-10 -18 0 -28 6 -7 8 -12 2 -11 -24 5 -27 -1 -9 -16 10 -8 14 -13 7 -10 -6 4
-14 2 -18 -4 -3 -5 -2 -10 2 -10 5 0 9 -16 10 -36 0 -20 7 -40 14 -45 12 -7
11 -9 -1 -9 -12 0 -13 -2 -1 -9 7 -5 10 -14 7 -20 -9 -14 18 -54 29 -43 5 4 5
1 1 -6 -5 -8 -1 -19 10 -28 11 -9 13 -13 7 -9 -7 3 -13 1 -13 -4 0 -6 8 -11
18 -11 14 0 15 -2 2 -10 -13 -8 -13 -10 2 -10 9 0 20 -5 24 -12 4 -7 3 -8 -4
-4 -8 5 -10 2 -6 -8 3 -9 11 -14 17 -13 7 1 11 -4 10 -10 -2 -7 4 -13 12 -13
8 0 16 -4 16 -10 1 -5 2 -16 3 -22 1 -7 9 -12 19 -10 10 2 17 -3 17 -12 0 -8
5 -18 12 -22 7 -4 8 -3 4 4 -4 7 -2 12 3 12 11 0 15 -15 12 -34 -1 -5 5 -4 13
4 13 10 16 10 16 -3 0 -11 7 -15 21 -12 15 3 19 0 15 -10 -3 -8 0 -17 6 -21 7
-4 8 -3 4 4 -5 8 0 11 15 9 13 -2 26 -12 30 -23 7 -17 8 -18 8 -1 1 10 6 15
11 12 6 -4 7 -12 3 -18 -4 -7 2 -5 12 3 10 8 16 10 12 4 -4 -7 0 -14 8 -18 8
-3 15 0 15 6 0 6 9 3 19 -6 18 -17 20 -17 30 1 10 17 10 17 11 -2 1 -13 4 -15
7 -6 5 11 7 11 14 0 6 -9 12 -10 17 -4 11 15 34 17 43 4 5 -9 12 -10 21 -3 7
6 33 12 58 13 25 2 48 8 52 14 5 8 8 7 8 -3 0 -11 2 -12 8 -2 5 7 22 10 40 8
20 -2 29 0 25 7 -4 6 0 8 10 4 9 -3 18 -3 21 1 6 10 48 8 64 -2 7 -4 12 -2 12
5 0 8 5 7 17 -2 11 -10 14 -10 9 -1 -4 6 -2 12 3 12 6 0 11 -8 12 -17 0 -11 3
-13 6 -6 3 10 10 10 26 1 19 -9 20 -9 12 3 -5 8 -3 7 7 -3 12 -13 17 -15 21
-6 3 10 7 10 20 0 9 -8 22 -10 29 -6 8 5 8 1 -2 -11 -14 -17 -14 -18 6 -7 18
9 25 8 39 -8 10 -11 23 -20 29 -20 6 0 4 5 -4 10 -8 5 -11 10 -6 10 5 0 18 -8
29 -17 15 -13 19 -14 13 -3 -4 9 -2 8 7 -2 18 -23 28 -23 21 0 -5 14 -4 14 4
3 6 -8 20 -16 33 -18 12 -2 29 -9 38 -16 12 -10 14 -9 8 5 -4 12 -2 15 9 11 7
-3 14 -10 14 -17 0 -6 5 -4 10 4 8 12 10 12 10 1 0 -11 3 -11 15 -1 12 10 15
10 15 -1 0 -11 2 -11 10 1 9 13 10 13 10 0 0 -13 1 -13 10 0 9 13 10 13 10 0
0 -12 2 -13 9 -1 5 7 13 11 19 7 6 -3 14 -2 17 4 4 6 16 8 27 4 15 -5 19 -3
13 7 -5 8 -5 11 0 7 4 -4 14 -3 22 4 11 9 12 7 7 -8 -5 -18 -5 -18 9 -1 11 14
16 15 20 5 3 -8 6 -6 6 6 1 15 4 16 15 7 11 -9 16 -9 22 0 5 8 3 9 -6 4 -8 -5
-11 -4 -7 3 4 5 17 8 29 4 14 -3 19 -2 14 6 -4 7 -3 12 3 12 5 0 12 -6 14 -12
3 -7 6 -4 6 7 1 16 3 17 11 5 8 -12 10 -12 16 4 5 14 9 15 15 4 7 -10 9 -10 9
0 0 6 7 12 15 12 8 0 15 6 15 13 0 8 4 7 10 -3 8 -13 10 -12 10 3 0 9 5 17 11
17 5 0 7 -4 4 -10 -13 -21 8 -9 27 16 11 14 23 23 26 19 3 -3 -3 -12 -14 -20
-10 -8 -15 -15 -11 -15 4 0 20 12 34 28 15 15 23 22 20 16 -3 -6 0 -11 8 -11
7 0 12 8 10 18 -3 13 2 16 18 12 18 -4 19 -3 7 6 -12 9 -11 11 8 11 12 0 22 6
22 13 0 8 11 20 25 27 13 7 21 18 18 23 -4 7 1 8 13 3 10 -4 15 -4 11 0 -4 4
-1 14 6 23 11 14 10 15 -8 1 -19 -14 -20 -14 -2 6 9 11 14 24 10 28 -4 4 0 4
9 1 11 -4 17 1 20 19 3 14 1 23 -3 20 -5 -3 -6 2 -3 10 3 9 11 13 18 9 6 -4 4
2 -4 12 -9 11 -10 16 -2 11 6 -4 12 -3 12 1 0 5 -6 15 -12 22 -10 11 -10 13 0
7 7 -4 12 -1 12 8 0 9 -6 16 -12 16 -8 0 -9 3 -3 8 6 4 11 22 12 40 1 30 0 32
-14 20 -15 -11 -15 -11 -6 7 9 15 8 22 -5 33 -12 9 -13 11 -2 6 8 -4 5 4 -7
17 -12 13 -23 28 -25 34 -2 5 -7 9 -11 7 -4 -1 -3 7 3 17 9 17 7 19 -9 16 -13
-2 -22 3 -26 16 -4 10 -13 19 -21 19 -13 0 -19 13 -14 35 1 6 -2 7 -5 3 -4 -4
-21 0 -37 8 -23 12 -28 12 -22 2 6 -11 5 -11 -9 0 -9 8 -21 11 -26 8 -5 -4
-14 2 -20 11 -8 14 -10 15 -11 3 0 -12 -2 -13 -9 -1 -10 15 -131 23 -131 9 0
-5 -5 -6 -11 -3 -14 9 -58 14 -57 6 2 -19 -4 -24 -12 -11 -8 12 -10 12 -10 1
0 -11 -3 -11 -15 -1 -12 10 -16 9 -21 -5 -7 -17 -8 -17 -21 1 -12 16 -13 16
-13 1 0 -14 -4 -16 -18 -8 -14 7 -25 6 -42 -6 -13 -9 -20 -11 -16 -5 4 7 1 12
-9 12 -10 0 -13 -5 -9 -12 5 -8 0 -7 -11 2 -14 11 -17 12 -11 1 6 -9 5 -12 -5
-9 -8 3 -13 12 -11 19 2 9 -4 7 -17 -5 -14 -13 -21 -15 -21 -6 0 10 -3 10 -14
1 -11 -9 -16 -9 -22 0 -5 8 -3 9 6 4 9 -6 11 -4 5 5 -6 10 -11 9 -22 -5 -13
-18 -13 -18 -14 1 0 10 -3 13 -6 7 -3 -10 -8 -9 -20 2 -8 8 -19 15 -26 15 -6
0 -2 -7 9 -15 18 -14 18 -14 -3 -8 -13 3 -23 9 -23 14 0 4 -10 14 -22 20 -22
12 -22 11 -8 -7 14 -18 14 -18 -6 -1 -11 9 -24 14 -29 10 -4 -5 -5 1 -1 11 5
15 4 17 -8 7 -11 -9 -16 -9 -22 0 -5 8 -3 9 6 4 9 -6 11 -4 6 4 -5 7 -15 10
-23 7 -9 -4 -11 -2 -7 6 5 8 2 9 -11 4 -16 -6 -16 -4 -4 11 7 10 9 15 4 10 -4
-4 -20 3 -34 15 -21 19 -23 20 -11 3 14 -19 14 -19 -2 -6 -10 7 -18 20 -18 28
0 9 -6 13 -15 10 -8 -4 -17 -1 -21 5 -4 7 -3 8 4 4 7 -4 12 -2 12 3 0 6 -7 11
-15 11 -9 0 -18 7 -21 15 -4 8 -10 15 -16 15 -5 0 -6 -5 -2 -12 4 -7 3 -8 -5
-4 -6 4 -9 12 -6 17 4 5 -6 14 -20 19 -14 5 -24 14 -20 19 3 6 -4 8 -16 6 -16
-3 -18 -1 -10 9 9 10 6 13 -14 11 -14 -2 -25 1 -25 6 0 5 -7 9 -16 9 -9 0 -12
5 -8 13 5 7 0 6 -11 -3 -11 -9 -16 -10 -11 -2 5 8 -1 12 -18 12 -14 0 -26 4
-26 9 0 5 -7 12 -16 15 -14 5 -15 4 -5 -8 10 -12 9 -14 -8 -9 -12 3 -19 9 -16
13 3 5 -3 7 -12 5 -10 -1 -24 3 -32 9 -12 9 -13 8 -8 -6 4 -13 2 -16 -11 -11
-9 3 -23 11 -31 17 -11 8 -13 8 -7 -1 4 -7 3 -13 -3 -13 -5 0 -12 6 -14 13 -3
6 -6 7 -6 2z m1149 -321 c0 -8 -19 -13 -24 -6 -3 5 1 9 9 9 8 0 15 -2 15 -3z
m-1585 -364 c3 -5 1 -10 -4 -10 -6 0 -11 5 -11 10 0 6 2 10 4 10 3 0 8 -4 11
-10z"/>
<path d="M4245 2560 c3 -5 8 -10 11 -10 2 0 4 5 4 10 0 6 -5 10 -11 10 -5 0
-7 -4 -4 -10z"/>
<path d="M4189 2173 c-13 -16 -12 -17 4 -4 16 13 21 21 13 21 -2 0 -10 -8 -17
-17z"/>
</g>
</svg>
